<svg width="32" height="30" viewBox="0 0 32 30" fill="none" xmlns="http://www.w3.org/2000/svg">
<g filter="url(#filter0_d_541_228)">
<path d="M21 21V19C21 17.9391 20.5786 16.9217 19.8284 16.1716C19.0783 15.4214 18.0609 15 17 15H9C7.93913 15 6.92172 15.4214 6.17157 16.1716C5.42143 16.9217 5 17.9391 5 19V21" stroke="black" stroke-width="1.5" stroke-linecap="round" stroke-linejoin="round"/>
<path d="M13 11C15.2091 11 17 9.20914 17 7C17 4.79086 15.2091 3 13 3C10.7909 3 9 4.79086 9 7C9 9.20914 10.7909 11 13 11Z" stroke="black" stroke-width="1.5" stroke-linecap="round" stroke-linejoin="round"/>
<path d="M27 21V19C26.9993 18.1137 26.7044 17.2528 26.1614 16.5523C25.6184 15.8519 24.8581 15.3516 24 15.13" stroke="black" stroke-width="1.5" stroke-linecap="round" stroke-linejoin="round"/>
<path d="M20 3.13C20.8604 3.35031 21.623 3.85071 22.1676 4.55232C22.7122 5.25392 23.0078 6.11683 23.0078 7.005C23.0078 7.89318 22.7122 8.75608 22.1676 9.45769C21.623 10.1593 20.8604 10.6597 20 10.88" stroke="black" stroke-width="1.5" stroke-linecap="round" stroke-linejoin="round"/>
</g>
<defs>
<filter id="filter0_d_541_228" x="0" y="0" width="32" height="32" filterUnits="userSpaceOnUse" color-interpolation-filters="sRGB">
<feFlood flood-opacity="0" result="BackgroundImageFix"/>
<feColorMatrix in="SourceAlpha" type="matrix" values="0 0 0 0 0 0 0 0 0 0 0 0 0 0 0 0 0 0 127 0" result="hardAlpha"/>
<feOffset dy="4"/>
<feGaussianBlur stdDeviation="2"/>
<feComposite in2="hardAlpha" operator="out"/>
<feColorMatrix type="matrix" values="0 0 0 0 0 0 0 0 0 0 0 0 0 0 0 0 0 0 0.25 0"/>
<feBlend mode="normal" in2="BackgroundImageFix" result="effect1_dropShadow_541_228"/>
<feBlend mode="normal" in="SourceGraphic" in2="effect1_dropShadow_541_228" result="shape"/>
</filter>
</defs>
</svg>
